:SAMPLES-PER-SECOND 30
:FULLY-SPECIFIED
:DEGREES
1186
root  40.3993 37.8485 -25.6049 18.6992 60.3821 26.3837
RightUpLeg  -17.8156 -11.8918 -8.81908
RightLeg  -6.30514 -32.3607 12.8922
RightFoot  6.46974 -2.699 17.4856
RightToes  0.00048216 0.542163 -0.142577
Spine  17.3437 -3.56122 -8.15323
Spine1  9.02907 -7.42442 9.53154
HEad  7.16873 -9.35085 4.6527
LeftShoulder1  9.47153 -15.3197 -43.7919
LeftArm  -10.21 5.74797 -21.9086
LeftForeArm  17.9018 -68.3794 -28.2817
LeftHand  -0.25398 0.0180481 5.50724
RightShoulder  4.67791 8.62721 32.6206
RightArm  -9.63855 -25.5557 28.8109
RightForeArm  21.0012 77.5102 93.2198
RightHand  0.433491 -7.47678 -24.9731
LeftUpLeg  9.9597 15.0044 -13.7487
LeftLeg  19.038 18.2912 1.15866
LeftFoot  -21.3961 0.144063 0.176733
LeftToes  1.06244e-005 4.65855e-005 -8.18506e-006
1187
root  42.1873 37.3916 -25.2573 18.3173 59.3857 25.5186
RightUpLeg  -18.2976 -11.4712 -6.69156
RightLeg  -9.05648 -38.0336 15.4646
RightFoot  7.21184 -2.08986 13.1708
RightToes  0.00048216 0.542163 -0.142577
Spine  16.8244 -4.06454 -7.61306
Spine1  9.48365 -7.98356 9.76438
HEad  7.03854 -9.60973 4.14452
LeftShoulder1  9.58206 -15.5582 -43.7448
LeftArm  -9.3958 4.23435 -22.2201
LeftForeArm  14.2691 -66.6181 -25.9351
LeftHand  -0.25398 0.0180481 5.50724
RightShoulder  4.69214 8.6572 32.6428
RightArm  -11.462 -26.6541 29.836
RightForeArm  23.7084 77.4899 95.1525
RightHand  0.335828 -7.00567 -25.1934
LeftUpLeg  11.9842 20.0978 -13.2083
LeftLeg  20.6038 13.9846 2.47027
LeftFoot  -23.8579 -0.0166076 -1.39123
LeftToes  1.06244e-005 4.65855e-005 -8.18506e-006
1188
root  43.8233 37.1472 -25.0327 15.1792 58.4429 21.425
RightUpLeg  -19.9108 -10.2766 -3.60231
RightLeg  -6.01697 -38.559 14.2748
RightFoot  7.47204 0.676105 -3.98044
RightToes  0.00048216 0.542163 -0.142577
Spine  18.0976 -4.58364 -4.08659
Spine1  9.73106 -8.42248 9.75255
HEad  6.43209 -9.80231 3.26384
LeftShoulder1  9.78577 -15.7869 -44.1649
LeftArm  -8.72397 2.50823 -22.6887
LeftForeArm  12.0881 -65.0575 -24.0599
LeftHand  -0.25398 0.0180481 5.50724
RightShoulder  4.77086 8.8396 32.7108
RightArm  -13.1401 -26.7751 29.9548
RightForeArm  22.9141 77.5394 93.0883
RightHand  0.376287 -7.26093 -24.4291
LeftUpLeg  13.2795 28.7696 -9.34645
LeftLeg  23.9022 5.73895 3.47448
LeftFoot  -24.4428 -0.537728 -6.0174
LeftToes  1.06244e-005 4.65855e-005 -8.18506e-006
1189
root  45.3931 36.8482 -24.8557 11.1322 57.0834 16.698
RightUpLeg  -24.706 -13.2673 1.17742
RightLeg  6.41221 -33.1669 7.05888
RightFoot  5.11792 3.28146 -22.1624
RightToes  0.00048216 0.542163 -0.142577
Spine  21.0607 -5.03961 -0.146892
Spine1  9.07244 -8.3938 9.62267
HEad  5.34852 -9.86408 2.45956
LeftShoulder1  10.1046 -16.149 -44.792
LeftArm  -8.34803 0.271009 -23.446
LeftForeArm  10.9038 -63.2246 -22.0242
LeftHand  -0.25398 0.0180481 5.50724
RightShoulder  4.98858 9.2365 33.2116
RightArm  -14.2285 -24.9293 28.8014
RightForeArm  12.7075 77.4166 81.2334
RightHand  0.495954 -8.06091 -22.5232
LeftUpLeg  10.5741 29.7411 -6.38625
LeftLeg  34.3725 4.90047 3.98027
LeftFoot  -20.2513 -0.756207 -11.6482
LeftToes  1.06244e-005 4.65855e-005 -8.18506e-006
1190
root  46.7904 36.5162 -24.7532 7.5047 54.612 12.0102
RightUpLeg  -31.2585 -25.8585 11.7508
RightLeg  17.3474 -16.4673 0.0287304
RightFoot  2.36454 3.68257 -29.6189
RightToes  0.00048216 0.542163 -0.142577
Spine  24.9448 -5.08219 3.11311
Spine1  8.21974 -7.69052 9.47763
HEad  3.5868 -9.78906 2.515
LeftShoulder1  10.3906 -16.6699 -44.8726
LeftArm  -8.36701 -3.02312 -24.6283
LeftForeArm  9.54624 -60.5002 -19.4882
LeftHand  -0.25398 0.0180481 5.50724
RightShoulder  5.41662 9.91844 34.3972
RightArm  -14.5252 -20.504 26.704
RightForeArm  -6.99312 75.672 59.8072
RightHand  0.522805 -8.61033 -19.8266
LeftUpLeg  3.01465 31.0119 -4.03161
LeftLeg  49.6978 3.47532 4.82093
LeftFoot  -8.09106 0.336663 -12.7184
LeftToes  1.06244e-005 4.65855e-005 -8.18506e-006
